<svg width="70" height="63" viewBox="0 0 70 63" fill="none" xmlns="http://www.w3.org/2000/svg">
<path d="M57.6279 26.2521C57.6279 39.6347 45.9301 50.5457 31.4205 50.5457C16.9109 50.5457 5.21307 39.6347 5.21307 26.2521C5.21307 12.8694 16.9109 1.95844 31.4205 1.95844C45.9301 1.95844 57.6279 12.8694 57.6279 26.2521Z" stroke="white"/>
<mask id="path-2-inside-1_6_12" fill="white">
<path d="M34.9646 1.65526C29.7054 2.08351 24.6888 4.46068 20.7387 8.3963C16.7886 12.3319 14.14 17.592 13.2279 23.3124C12.3158 29.0329 13.1944 34.8736 15.7195 39.8751C18.2446 44.8767 22.2659 48.7417 27.123 50.8353L27.6489 49.4403C23.077 47.4696 19.2917 43.8315 16.9149 39.1236C14.5381 34.4157 13.711 28.9179 14.5696 23.5333C15.4281 18.1487 17.9213 13.1974 21.6394 9.49287C25.3576 5.78831 30.0797 3.5507 35.0302 3.14759L34.9646 1.65526Z"/>
</mask>
<path d="M34.9646 1.65526C29.7054 2.08351 24.6888 4.46068 20.7387 8.3963C16.7886 12.3319 14.14 17.592 13.2279 23.3124C12.3158 29.0329 13.1944 34.8736 15.7195 39.8751C18.2446 44.8767 22.2659 48.7417 27.123 50.8353L27.6489 49.4403C23.077 47.4696 19.2917 43.8315 16.9149 39.1236C14.5381 34.4157 13.711 28.9179 14.5696 23.5333C15.4281 18.1487 17.9213 13.1974 21.6394 9.49287C25.3576 5.78831 30.0797 3.5507 35.0302 3.14759L34.9646 1.65526Z" stroke="white" stroke-width="20" mask="url(#path-2-inside-1_6_12)"/>
<mask id="path-3-inside-2_6_12" fill="white">
<path d="M43.8154 4.76166C38.5872 5.13131 33.6116 7.30395 29.7058 10.9227C25.8 14.5415 23.1963 19.3912 22.3223 24.6752C21.4483 29.9592 22.356 35.3634 24.8963 39.9999C27.4367 44.6365 31.4586 48.2298 36.3014 50.1896L36.8164 48.9026C32.2579 47.0578 28.4721 43.6755 26.0809 39.3111C23.6897 34.9468 22.8352 29.8599 23.6579 24.8861C24.4806 19.9123 26.9315 15.3473 30.608 11.941C34.2845 8.53469 38.968 6.4896 43.8892 6.14166L43.8154 4.76166Z"/>
</mask>
<path d="M43.8154 4.76166C38.5872 5.13131 33.6116 7.30395 29.7058 10.9227C25.8 14.5415 23.1963 19.3912 22.3223 24.6752C21.4483 29.9592 22.356 35.3634 24.8963 39.9999C27.4367 44.6365 31.4586 48.2298 36.3014 50.1896L36.8164 48.9026C32.2579 47.0578 28.4721 43.6755 26.0809 39.3111C23.6897 34.9468 22.8352 29.8599 23.6579 24.8861C24.4806 19.9123 26.9315 15.3473 30.608 11.941C34.2845 8.53469 38.968 6.4896 43.8892 6.14166L43.8154 4.76166Z" stroke="white" stroke-width="20" mask="url(#path-3-inside-2_6_12)"/>
<mask id="path-4-inside-3_6_12" fill="white">
<path d="M51.6008 12.518C48.429 12.8195 45.3947 14.4002 42.9963 17.0004C40.5979 19.6006 38.978 23.0657 38.4027 26.8265C37.8273 30.5873 38.3308 34.4202 39.8303 37.6955C41.3298 40.9709 43.7363 43.4939 46.6544 44.8503L46.9776 43.932C44.2308 42.6553 41.9657 40.2804 40.5542 37.1973C39.1427 34.1142 38.6688 30.5064 39.2103 26.9664C39.7519 23.4264 41.2767 20.1648 43.5343 17.7172C45.7919 15.2697 48.6481 13.7818 51.6336 13.4979L51.6008 12.518Z"/>
</mask>
<path d="M51.6008 12.518C48.429 12.8195 45.3947 14.4002 42.9963 17.0004C40.5979 19.6006 38.978 23.0657 38.4027 26.8265C37.8273 30.5873 38.3308 34.4202 39.8303 37.6955C41.3298 40.9709 43.7363 43.4939 46.6544 44.8503L46.9776 43.932C44.2308 42.6553 41.9657 40.2804 40.5542 37.1973C39.1427 34.1142 38.6688 30.5064 39.2103 26.9664C39.7519 23.4264 41.2767 20.1648 43.5343 17.7172C45.7919 15.2697 48.6481 13.7818 51.6336 13.4979L51.6008 12.518Z" stroke="white" stroke-width="20" mask="url(#path-4-inside-3_6_12)"/>
<mask id="path-5-inside-4_6_12" fill="white">
<path d="M56.5521 19.7842C53.826 19.8724 51.2087 20.8418 49.13 22.5331C47.0513 24.2245 45.6349 26.5371 45.1134 29.0913C44.592 31.6454 44.9964 34.2891 46.2604 36.5882C47.5243 38.8873 49.5726 40.705 52.0688 41.7427L52.3531 41.1259C50.0034 40.1491 48.0754 38.4381 46.8856 36.274C45.6959 34.1099 45.3152 31.6214 45.8061 29.2172C46.2969 26.813 47.6302 24.6361 49.5868 23.0441C51.5435 21.4521 54.0071 20.5396 56.5732 20.4565L56.5521 19.7842Z"/>
</mask>
<path d="M56.5521 19.7842C53.826 19.8724 51.2087 20.8418 49.13 22.5331C47.0513 24.2245 45.6349 26.5371 45.1134 29.0913C44.592 31.6454 44.9964 34.2891 46.2604 36.5882C47.5243 38.8873 49.5726 40.705 52.0688 41.7427L52.3531 41.1259C50.0034 40.1491 48.0754 38.4381 46.8856 36.274C45.6959 34.1099 45.3152 31.6214 45.8061 29.2172C46.2969 26.813 47.6302 24.6361 49.5868 23.0441C51.5435 21.4521 54.0071 20.5396 56.5732 20.4565L56.5521 19.7842Z" stroke="white" stroke-width="20" mask="url(#path-5-inside-4_6_12)"/>
<path d="M32.3667 49.2277C18.353 49.8178 6.67132 39.7672 6.0484 27.0181C5.42548 14.269 16.0791 3.27785 30.0927 2.68776C44.1064 2.09767 55.7881 12.1483 56.411 24.8974C57.0339 37.6465 46.3804 48.6376 32.3667 49.2277Z" stroke="white" stroke-width="3"/>
<mask id="path-7-inside-5_6_12" fill="white">
<path d="M57.8583 28.13C57.1592 23.2721 54.3739 18.7274 49.9598 15.2425C45.5458 11.7575 39.7655 9.53957 33.5685 8.9529C27.3715 8.36622 21.1263 9.44572 15.8586 12.0141C10.591 14.5824 6.61411 18.4869 4.58133 23.0862L6.10625 23.5107C8.01969 19.1815 11.7631 15.5062 16.7215 13.0886C21.6799 10.6711 27.5585 9.65494 33.3917 10.2072C39.2248 10.7594 44.6657 12.8472 48.8206 16.1275C52.9755 19.4078 55.5974 23.6857 56.2554 28.2584L57.8583 28.13Z"/>
</mask>
<path d="M57.8583 28.13C57.1592 23.2721 54.3739 18.7274 49.9598 15.2425C45.5458 11.7575 39.7655 9.53957 33.5685 8.9529C27.3715 8.36622 21.1263 9.44572 15.8586 12.0141C10.591 14.5824 6.61411 18.4869 4.58133 23.0862L6.10625 23.5107C8.01969 19.1815 11.7631 15.5062 16.7215 13.0886C21.6799 10.6711 27.5585 9.65494 33.3917 10.2072C39.2248 10.7594 44.6657 12.8472 48.8206 16.1275C52.9755 19.4078 55.5974 23.6857 56.2554 28.2584L57.8583 28.13Z" stroke="white" stroke-width="20" mask="url(#path-7-inside-5_6_12)"/>
<mask id="path-8-inside-6_6_12" fill="white">
<path d="M54.9167 36.4788C54.282 31.6471 51.7186 27.1312 47.6475 23.6729C43.5765 20.2147 38.2398 18.0198 32.5142 17.4486C26.7885 16.8775 21.0144 17.9642 16.1401 20.5302C11.2659 23.0962 7.58148 26.9889 5.69202 31.5689L7.1003 31.9882C8.87882 27.677 12.347 24.0129 16.935 21.5975C21.5231 19.1822 26.9583 18.1593 32.3478 18.6969C37.7373 19.2345 42.7606 21.3006 46.5927 24.5558C50.4247 27.811 52.8376 32.0617 53.435 36.6098L54.9167 36.4788Z"/>
</mask>
<path d="M54.9167 36.4788C54.282 31.6471 51.7186 27.1312 47.6475 23.6729C43.5765 20.2147 38.2398 18.0198 32.5142 17.4486C26.7885 16.8775 21.0144 17.9642 16.1401 20.5302C11.2659 23.0962 7.58148 26.9889 5.69202 31.5689L7.1003 31.9882C8.87882 27.677 12.347 24.0129 16.935 21.5975C21.5231 19.1822 26.9583 18.1593 32.3478 18.6969C37.7373 19.2345 42.7606 21.3006 46.5927 24.5558C50.4247 27.811 52.8376 32.0617 53.435 36.6098L54.9167 36.4788Z" stroke="white" stroke-width="20" mask="url(#path-8-inside-6_6_12)"/>
<mask id="path-9-inside-7_6_12" fill="white">
<path d="M46.923 44.0504C46.4548 41.1226 44.6163 38.3803 41.7096 36.2738C38.8029 34.1674 35.0008 32.8221 30.9278 32.4589C26.8548 32.0958 22.7531 32.7363 19.2965 34.2754C15.8399 35.8145 13.234 38.1605 11.9066 40.9282L12.9094 41.1863C14.1588 38.5812 16.6118 36.3728 19.8655 34.9241C23.1191 33.4754 26.98 32.8725 30.8139 33.2143C34.6477 33.5561 38.2266 34.8224 40.9627 36.8052C43.6987 38.788 45.4293 41.3693 45.87 44.1252L46.923 44.0504Z"/>
</mask>
<path d="M46.923 44.0504C46.4548 41.1226 44.6163 38.3803 41.7096 36.2738C38.8029 34.1674 35.0008 32.8221 30.9278 32.4589C26.8548 32.0958 22.7531 32.7363 19.2965 34.2754C15.8399 35.8145 13.234 38.1605 11.9066 40.9282L12.9094 41.1863C14.1588 38.5812 16.6118 36.3728 19.8655 34.9241C23.1191 33.4754 26.98 32.8725 30.8139 33.2143C34.6477 33.5561 38.2266 34.8224 40.9627 36.8052C43.6987 38.788 45.4293 41.3693 45.87 44.1252L46.923 44.0504Z" stroke="white" stroke-width="20" mask="url(#path-9-inside-7_6_12)"/>
<mask id="path-10-inside-8_6_12" fill="white">
<path d="M39.3283 48.9714C39.1098 46.4473 37.9481 44.0639 36.0339 42.2128C34.1197 40.3617 31.5669 39.1529 28.7948 38.7851C26.0227 38.4172 23.1962 38.912 20.7795 40.1884C18.3627 41.4648 16.4996 43.4467 15.496 45.8087L16.1726 46.0443C17.1173 43.821 18.8711 41.9555 21.1459 40.754C23.4207 39.5526 26.0814 39.0868 28.6907 39.4331C31.3001 39.7794 33.703 40.9172 35.5048 42.6596C37.3066 44.402 38.4001 46.6455 38.6058 49.0214L39.3283 48.9714Z"/>
</mask>
<path d="M39.3283 48.9714C39.1098 46.4473 37.9481 44.0639 36.0339 42.2128C34.1197 40.3617 31.5669 39.1529 28.7948 38.7851C26.0227 38.4172 23.1962 38.912 20.7795 40.1884C18.3627 41.4648 16.4996 43.4467 15.496 45.8087L16.1726 46.0443C17.1173 43.821 18.8711 41.9555 21.1459 40.754C23.4207 39.5526 26.0814 39.0868 28.6907 39.4331C31.3001 39.7794 33.703 40.9172 35.5048 42.6596C37.3066 44.402 38.4001 46.6455 38.6058 49.0214L39.3283 48.9714Z" stroke="white" stroke-width="20" mask="url(#path-10-inside-8_6_12)"/>
</svg>
